<?xml version="1.0" encoding="UTF-8"?>
<svg xmlns="http://www.w3.org/2000/svg" xmlns:xlink="http://www.w3.org/1999/xlink" viewBox="0 0 77.56 77.11">
  <defs>
    <style>
      .cls-1 {
        mask: url(#mask);
      }

      .cls-2 {
        fill: #fff;
      }

      .cls-2, .cls-3 {
        fill-rule: evenodd;
      }

      .cls-4 {
        fill: #1f9cf0;
      }

      .cls-5 {
        isolation: isolate;
      }

      .cls-6 {
        fill: #007acc;
      }

      .cls-7 {
        mix-blend-mode: overlay;
        opacity: .25;
      }

      .cls-8 {
        fill: #0065a9;
      }

      .cls-3 {
        fill: url(#Sfumatura_senza_nome_3);
      }
    </style>
    <mask id="mask" x="0" y="0" width="77.56" height="77.11" maskUnits="userSpaceOnUse">
      <g id="mask0">
        <path class="cls-2" d="M55.01,76.78c1.22.48,2.61.45,3.84-.15l15.96-7.68c1.68-.81,2.74-2.5,2.74-4.37V12.52c0-1.86-1.07-3.56-2.74-4.37L58.85.48c-1.62-.78-3.51-.59-4.93.44-.2.15-.4.31-.58.49l-30.55,27.87-13.31-10.1c-1.24-.94-2.97-.86-4.12.18l-4.27,3.88c-1.41,1.28-1.41,3.49,0,4.78l11.54,10.53L1.1,49.08c-1.41,1.28-1.4,3.5,0,4.78l4.27,3.88c1.15,1.05,2.88,1.12,4.12.18l13.31-10.1,30.55,27.87c.48.48,1.05.85,1.66,1.09ZM58.19,20.96l-23.18,17.6,23.18,17.6V20.96Z"/>
      </g>
    </mask>
    <linearGradient id="Sfumatura_senza_nome_3" data-name="Sfumatura senza nome 3" x1="38.75" y1="77" x2="38.75" y2="-.11" gradientTransform="translate(0 77) scale(1 -1)" gradientUnits="userSpaceOnUse">
      <stop offset="0" stop-color="#fff"/>
      <stop offset="1" stop-color="#fff" stop-opacity="0"/>
    </linearGradient>
  </defs>
  <g class="cls-5">
    <g id="Livello_2" data-name="Livello 2">
      <g id="Livello_1-2" data-name="Livello 1">
        <g class="cls-1">
          <g>
            <path class="cls-8" d="M74.81,8.17L58.84.48c-1.85-.89-4.06-.51-5.51.94L1.05,49.08c-1.41,1.28-1.4,3.5,0,4.78l4.27,3.88c1.15,1.05,2.88,1.12,4.12.18L72.41,10.16c2.11-1.6,5.15-.1,5.15,2.56v-.19c0-1.86-1.07-3.56-2.74-4.36Z"/>
            <path class="cls-6" d="M74.81,68.94l-15.97,7.69c-1.85.89-4.06.51-5.51-.94L1.05,28.03c-1.41-1.28-1.4-3.5,0-4.78l4.27-3.88c1.15-1.05,2.88-1.12,4.12-.18l62.96,47.76c2.11,1.6,5.15.1,5.15-2.56v.19c0,1.86-1.07,3.56-2.74,4.36Z"/>
            <path class="cls-4" d="M58.84,76.63c-1.85.89-4.06.51-5.51-.94,1.79,1.79,4.84.52,4.84-2.01V3.42c0-2.53-3.06-3.79-4.84-2.01,1.45-1.45,3.66-1.83,5.51-.94l15.97,7.68c1.68.81,2.74,2.5,2.74,4.37v52.07c0,1.86-1.07,3.56-2.74,4.37l-15.97,7.68Z"/>
            <g class="cls-7">
              <path class="cls-3" d="M54.96,76.78c1.22.48,2.61.45,3.84-.15l15.96-7.68c1.68-.81,2.74-2.5,2.74-4.37V12.52c0-1.86-1.07-3.56-2.74-4.37L58.81.48c-1.62-.78-3.51-.59-4.93.44-.2.15-.4.31-.58.49l-30.55,27.87-13.31-10.1c-1.24-.94-2.97-.86-4.12.18l-4.27,3.88c-1.41,1.28-1.41,3.49,0,4.78l11.54,10.53L1.05,49.08c-1.41,1.28-1.4,3.5,0,4.78l4.27,3.88c1.15,1.05,2.88,1.12,4.12.18l13.31-10.1,30.55,27.87c.48.48,1.05.85,1.66,1.09ZM58.14,20.96l-23.18,17.6,23.18,17.6V20.96Z"/>
            </g>
          </g>
        </g>
      </g>
    </g>
  </g>
</svg>