<?xml version="1.0" encoding="UTF-8"?>
<svg id="Livello_2" data-name="Livello 2" xmlns="http://www.w3.org/2000/svg" xmlns:xlink="http://www.w3.org/1999/xlink" viewBox="0 0 69.93 92.74">
  <defs>
    <style>
      .cls-1, .cls-2, .cls-3 {
        fill-rule: evenodd;
      }

      .cls-2 {
        fill: url(#Sfumatura_senza_nome_4);
      }

      .cls-3 {
        fill: url(#Sfumatura_senza_nome_5);
      }

      .cls-4 {
        fill: url(#Sfumatura_senza_nome_6);
      }
    </style>
    <linearGradient id="Sfumatura_senza_nome_6" data-name="Sfumatura senza nome 6" x1="-369.77" y1="466.67" x2="-369.77" y2="466.52" gradientTransform="translate(81033.84 294000.22) scale(219 -630)" gradientUnits="userSpaceOnUse">
      <stop offset="0" stop-color="#ebbb14"/>
      <stop offset="1" stop-color="#b25400"/>
    </linearGradient>
    <linearGradient id="Sfumatura_senza_nome_5" data-name="Sfumatura senza nome 5" x1="-369.27" y1="466.75" x2="-369.27" y2="466.61" gradientTransform="translate(80904.84 220797.14) scale(219 -473)" gradientUnits="userSpaceOnUse">
      <stop offset="0" stop-color="#f9e583"/>
      <stop offset="1" stop-color="#de9800"/>
    </linearGradient>
    <linearGradient id="Sfumatura_senza_nome_4" data-name="Sfumatura senza nome 4" x1="-368.77" y1="466.93" x2="-368.77" y2="466.78" gradientTransform="translate(80777.84 147127.8) scale(219 -315)" gradientUnits="userSpaceOnUse">
      <stop offset="0" stop-color="#f9e68b"/>
      <stop offset="1" stop-color="#f3cd32"/>
    </linearGradient>
  </defs>
  <g id="Livello_1-2" data-name="Livello 1">
    <g id="PBI-Logo">
      <g id="Group">
        <rect id="Rectangle" class="cls-4" x="37.69" width="32.24" height="92.74" rx="3.83" ry="3.83"/>
        <g id="Combined-Shape">
          <path id="path-3" class="cls-1" d="M50.94,88.92v3.83h-28.41c-2.11,0-3.83-1.71-3.83-3.83V26.94c0-2.11,1.71-3.83,3.83-3.83h24.58c2.11,0,3.83,1.71,3.83,3.83v61.98Z"/>
          <path id="path-3-2" data-name="path-3" class="cls-3" d="M50.94,88.92v3.83h-28.41c-2.11,0-3.83-1.71-3.83-3.83V26.94c0-2.11,1.71-3.83,3.83-3.83h24.58c2.11,0,3.83,1.71,3.83,3.83v61.98Z"/>
        </g>
        <path id="Combined-Shape-2" data-name="Combined-Shape" class="cls-2" d="M32.24,88.92v3.83H3.83c-2.11,0-3.83-1.71-3.83-3.83v-38.72c0-2.11,1.71-3.83,3.83-3.83h24.58c2.11,0,3.83,1.71,3.83,3.83v38.72Z"/>
      </g>
    </g>
  </g>
</svg>